<svg width="21" height="25" viewBox="0 0 21 25" fill="none" xmlns="http://www.w3.org/2000/svg">
<path d="M2.34389 24.5001C7.78022 24.5001 13.2159 24.5001 18.6522 24.5001C18.6653 24.4903 18.677 24.476 18.6914 24.4721C20.2511 24.1029 20.9964 23.1592 20.9964 21.5515C20.9964 15.9055 20.9964 10.2594 20.9964 4.61335C20.9964 4.11702 21.0095 3.62005 20.9912 3.12438C20.9586 2.28827 20.6006 1.61324 19.9486 1.08757C19.095 0.400156 18.0941 0.523421 17.0886 0.535813C17.0886 1.10714 17.0957 1.6589 17.0873 2.21C17.0723 3.13743 16.3328 3.88876 15.4036 3.89136C12.1335 3.89919 8.86266 3.89789 5.59187 3.89202C4.7696 3.89071 4.06667 3.31678 3.95255 2.49892C3.87561 1.94782 3.91734 1.37976 3.90626 0.819518C3.9043 0.725602 3.90626 0.631686 3.90626 0.526682C3.70085 0.526682 3.53001 0.516247 3.36047 0.528639C2.86816 0.564509 2.35693 0.537117 1.88875 0.664296C0.724796 0.980611 0.000341415 2.04304 0.000341415 3.32069C-0.000963211 9.44678 -0.000310898 15.5729 0.000341415 21.6989C0.000341415 21.7805 0.000993729 21.862 0.00425339 21.9429C0.0498981 23.0836 0.870207 24.1082 1.97221 24.401C2.0961 24.4336 2.21935 24.4669 2.34389 24.5001ZM10.5326 9.26547C9.25521 9.26547 7.9778 9.26547 6.69974 9.26547C6.02419 9.26547 5.34864 9.27199 4.67375 9.26286C4.15665 9.25568 3.81301 8.77762 3.96951 8.30217C4.07514 7.9826 4.35423 7.80063 4.75069 7.80063C8.59988 7.79998 12.4484 7.79998 16.2976 7.80063C16.3465 7.80063 16.3954 7.79868 16.4437 7.80389C17.0064 7.85998 17.3044 8.5037 16.9738 8.95698C16.8075 9.18525 16.5734 9.26742 16.2937 9.26677C14.3733 9.26416 12.453 9.26547 10.5326 9.26547ZM10.5463 13.1721C9.83816 13.1721 9.13066 13.1721 8.42251 13.1721C7.18553 13.1721 5.94855 13.1747 4.71222 13.1708C4.18143 13.1689 3.83062 12.7312 3.95908 12.246C4.04906 11.9056 4.34119 11.7079 4.76112 11.7079C8.60183 11.7073 12.4425 11.7079 16.2833 11.7079C16.34 11.7079 16.3974 11.7053 16.4541 11.7119C16.9132 11.7634 17.2138 12.218 17.0788 12.6569C16.9803 12.9778 16.6954 13.1715 16.3074 13.1721C14.387 13.1728 12.4667 13.1721 10.5463 13.1721ZM6.39652 19.0804C5.83378 19.0804 5.3056 19.0817 4.77743 19.0797C4.28576 19.0784 3.9519 18.7764 3.95581 18.3408C3.95973 17.9142 4.28968 17.6175 4.76634 17.6155C5.23844 17.6136 5.70989 17.6155 6.18199 17.6142C6.25111 17.6142 6.32088 17.6051 6.39652 17.5999C6.39652 17.0305 6.39587 16.4859 6.39652 15.9414C6.39717 15.64 6.52172 15.4052 6.79103 15.2624C7.28204 15.0015 7.84934 15.3465 7.85847 15.9179C7.8676 16.4768 7.86043 17.0351 7.86043 17.6155C7.96606 17.6155 8.04562 17.6155 8.12452 17.6155C8.60444 17.6155 9.08437 17.6116 9.56429 17.6175C9.87794 17.6214 10.1101 17.774 10.2379 18.059C10.3631 18.3375 10.3109 18.6023 10.1127 18.8312C9.95423 19.0145 9.74426 19.0836 9.503 19.0823C8.96113 19.0784 8.41925 19.081 7.86043 19.081C7.86043 19.6387 7.86173 20.1663 7.86043 20.6933C7.85912 21.1883 7.56308 21.5215 7.12815 21.5215C6.69322 21.5215 6.39783 21.1883 6.39652 20.6926C6.39522 20.1643 6.39652 19.6374 6.39652 19.0804ZM14.4529 15.6133C15.0704 15.6133 15.6879 15.612 16.3061 15.6139C16.7795 15.6153 17.1081 15.9153 17.1101 16.3418C17.112 16.769 16.7827 17.0762 16.3126 17.0775C15.0691 17.0794 13.8256 17.0794 12.5821 17.0775C12.1119 17.0768 11.7761 16.7709 11.7735 16.349C11.7709 15.9283 12.1087 15.6159 12.5749 15.6139C13.2009 15.6113 13.8269 15.6133 14.4529 15.6133Z" fill="#3568F0"/>
</svg>
