<svg width="15" height="15" viewBox="0 0 15 15" fill="none" xmlns="http://www.w3.org/2000/svg">
<path d="M0.00012207 8.66492V6.26501C0.185692 6.16295 0.379447 6.07629 0.579224 6.00598C0.824906 5.93479 1.07929 5.89883 1.33508 5.89905C1.58007 5.92359 1.82482 5.85294 2.01917 5.70178C2.21351 5.55062 2.34251 5.33053 2.37903 5.08704C2.41124 5.0206 2.42372 4.9462 2.41467 4.87292C2.40562 4.79965 2.37516 4.73055 2.32776 4.67395C2.02776 4.31395 1.75697 3.9381 1.46497 3.5741C1.31997 3.3951 1.27199 3.21392 1.44299 3.03992C1.97099 2.50658 2.50442 1.97526 3.04309 1.44592C3.07769 1.40918 3.11921 1.37998 3.16565 1.36023C3.21209 1.34048 3.26216 1.33061 3.31262 1.33118C3.36309 1.33174 3.41312 1.34286 3.45911 1.36365C3.50509 1.38443 3.54643 1.41452 3.5802 1.45203C3.82916 1.61826 4.06474 1.8031 4.28577 2.005C4.35552 2.10227 4.44432 2.1844 4.54651 2.2467C4.6487 2.30901 4.76257 2.35011 4.88098 2.36755C4.99939 2.385 5.12014 2.37844 5.23596 2.34827C5.35178 2.31809 5.45997 2.26503 5.55481 2.19202C5.69381 2.10702 5.80602 2.06007 5.81702 1.86707C5.83026 1.59015 5.87057 1.31514 5.93713 1.04602C6.02713 0.692021 6.15619 0.345925 6.26819 -0.0020752H8.66809C8.77836 0.1357 8.86894 0.28829 8.93713 0.45105C9.01464 0.740303 9.06091 1.03697 9.07581 1.33606C9.04988 1.57051 9.11391 1.80609 9.25452 1.99548C9.39512 2.18487 9.60218 2.31404 9.83411 2.35706C9.91679 2.38936 10.0066 2.3992 10.0944 2.38586C10.1821 2.37252 10.2648 2.33654 10.3341 2.28113C10.7001 1.99313 11.0779 1.72091 11.4459 1.43591C11.4814 1.40014 11.5241 1.37235 11.5709 1.35388C11.6178 1.33542 11.6676 1.32676 11.7179 1.32874C11.7682 1.33071 11.8177 1.34328 11.8629 1.36536C11.9082 1.38744 11.9486 1.41847 11.9811 1.45691C12.4751 1.95091 12.9668 2.44757 13.4562 2.9469C13.5044 2.98925 13.5432 3.04137 13.5699 3.09973C13.5967 3.15809 13.6104 3.22158 13.611 3.28577C13.6115 3.34996 13.5986 3.41347 13.5729 3.47229C13.5472 3.53111 13.5095 3.58388 13.462 3.62708C13.191 3.96408 12.926 4.3061 12.674 4.6571C12.6401 4.70139 12.6153 4.75188 12.6012 4.80579C12.5871 4.85969 12.5841 4.91591 12.5919 4.97107C12.665 5.21348 12.7622 5.44793 12.882 5.67102C12.9094 5.71496 12.9455 5.75287 12.9879 5.78259C13.0304 5.81231 13.0784 5.83333 13.129 5.84412C13.598 5.92712 14.0742 5.97202 14.5402 6.06702C14.7063 6.12945 14.8617 6.21716 15.0011 6.32703V8.72693C14.8153 8.8292 14.6212 8.91587 14.421 8.98596C14.1756 9.0568 13.9216 9.09275 13.6661 9.0929C13.5445 9.07715 13.4211 9.08589 13.3029 9.11853C13.1846 9.15117 13.074 9.20717 12.9777 9.28308C12.8813 9.35899 12.8012 9.45335 12.7418 9.56067C12.6825 9.66798 12.6451 9.78615 12.632 9.90808C12.5998 10.0336 12.6144 10.1665 12.673 10.2821C12.947 10.6721 13.2461 11.0451 13.5421 11.4191C13.6741 11.5851 13.7422 11.7609 13.5802 11.9259C13.0462 12.4729 12.5041 13.01 11.9591 13.547C11.9242 13.5834 11.882 13.6124 11.8356 13.6322C11.7892 13.652 11.7395 13.6622 11.6891 13.6622C11.6386 13.6622 11.5885 13.652 11.5421 13.6322C11.4957 13.6124 11.454 13.5834 11.4191 13.547C11.1686 13.3826 10.9326 13.197 10.714 12.9921C10.6454 12.894 10.5574 12.811 10.4557 12.7479C10.354 12.6849 10.2405 12.6431 10.1222 12.6254C10.0039 12.6076 9.88345 12.614 9.7677 12.6444C9.65195 12.6748 9.54323 12.7285 9.44885 12.8021C9.31185 12.8881 9.19713 12.9321 9.18713 13.1271C9.16824 13.4033 9.12863 13.6778 9.06897 13.9481C8.99697 14.3081 9.03396 14.706 8.73596 14.994H6.33606C6.22571 14.8567 6.13512 14.7046 6.06702 14.5421C5.98717 14.2424 5.93948 13.935 5.92493 13.6251C5.94631 13.3964 5.88092 13.1678 5.74182 12.985C5.60272 12.8022 5.40009 12.6784 5.17395 12.6381C5.0921 12.6033 5.00227 12.5913 4.91418 12.6036C4.8261 12.616 4.74309 12.6522 4.67395 12.7081C4.31195 12.9991 3.93406 13.2711 3.56506 13.5541C3.53244 13.5887 3.49302 13.6163 3.44934 13.6351C3.40566 13.654 3.35873 13.6637 3.31116 13.6637C3.26358 13.6637 3.21617 13.654 3.17249 13.6351C3.12881 13.6163 3.08939 13.5887 3.05676 13.5541C2.53776 13.0401 2.01986 12.5251 1.51086 12.0011C1.4717 11.9649 1.44014 11.9212 1.41809 11.8727C1.39604 11.8241 1.38394 11.7717 1.38245 11.7184C1.38096 11.6651 1.39048 11.6121 1.40979 11.5624C1.4291 11.5127 1.45767 11.4674 1.49475 11.4291C1.67048 11.1733 1.8611 10.9278 2.06506 10.694C2.39406 10.349 2.55487 10.007 2.21887 9.578C2.18087 9.529 2.19102 9.43912 2.15002 9.39612C2.05602 9.29612 1.95601 9.16409 1.83801 9.13708C1.50501 9.06108 1.1559 9.05391 0.821899 8.97791C0.534899 8.9229 0.179122 9.01192 0.00012207 8.66492ZM5.00012 7.49695C4.99601 7.82412 5.05683 8.14887 5.17932 8.45227C5.30181 8.75567 5.4834 9.03167 5.7135 9.26428C5.9436 9.4969 6.2176 9.68147 6.51965 9.80725C6.82171 9.93303 7.14558 9.9975 7.47278 9.99695C7.80259 10.0043 8.13091 9.94556 8.43762 9.8241C8.74434 9.70263 9.02356 9.52108 9.25891 9.28992C9.49427 9.05876 9.68078 8.78263 9.80774 8.47815C9.9347 8.17367 9.99959 7.84685 9.99817 7.51697C10.0046 7.18694 9.94442 6.85912 9.8219 6.55261C9.69938 6.2461 9.51694 5.96721 9.28479 5.73254C9.05264 5.49788 8.77551 5.31222 8.47034 5.1864C8.16517 5.06059 7.83801 4.99725 7.50793 5.00012C7.17799 4.99474 6.85056 5.05556 6.54456 5.17908C6.23855 5.3026 5.96044 5.4862 5.72668 5.71912C5.49293 5.95203 5.30785 6.22948 5.18323 6.53503C5.05861 6.84059 4.99691 7.16796 5.0011 7.49792L5.00012 7.49695Z" fill="#3D465B"/>
</svg>
